# xmcd
#
# Track frame offsets:
#	150
#	13421
#	25125
#	34764
#	44844
#	58983
#	68406
#	86589
#	99837
#	111768
#
# Disc length: 1662 seconds
#
# Revision: 1
# Processed by: cddbd v1.5.2PL0 Copyright (c) Steve Scherf et al.
# Submitted via: audiograbber 1.83.01
#
DISCID=81067c0a
DTITLE=Johnny Paycheck - Slide Off Your Satin Sheets
DYEAR=1977
DGENRE=Country
TTITLE0=Slide Off Your Satin Sheets
TTITLE1=If You Could Hold My Heart
TTITLE2=I've Got Them Lookin' In The Mirror
TTITLE3=Hank (You Tried To Tell Me)
TTITLE4=I'm The Only Hell (Mama Ever Raised)
TTITLE5=You're Still On My Mind
TTITLE6=I Did The Right Thing
TTITLE7=Woman (You Better Love Me)
TTITLE8=You're Gonna Be The Cowboy
TTITLE9=(To Be So Sad) She's Still Lookin' Good
EXTD=
EXTT0=
EXTT1=
EXTT2=
EXTT3=
EXTT4=
EXTT5=
EXTT6=
EXTT7=
EXTT8=
EXTT9=
PLAYORDER=
